<svg width="24" height="24" viewBox="0 0 24 24" fill="none" xmlns="http://www.w3.org/2000/svg">
<g clip-path="url(#clip0)">
<path d="M12.0007 0C5.37349 0 0.000976562 5.37268 0.000976562 11.9997C0.000976562 18.6267 5.37349 24 12.0007 24C18.6278 24 24.0007 18.6269 24.0007 11.9997C24.0007 5.37244 18.6279 0 12.0007 0ZM12.8294 13.4671C12.8287 13.4986 12.824 13.5301 12.8196 13.5617C12.8165 13.5854 12.8151 13.6096 12.8097 13.6329C12.8043 13.6571 12.7951 13.6811 12.7873 13.7053C12.7779 13.7346 12.7692 13.7638 12.757 13.7914C12.7547 13.7962 12.7539 13.8013 12.7518 13.8061C12.7337 13.8447 12.7127 13.8808 12.6898 13.9151C12.6883 13.9171 12.6864 13.9192 12.685 13.9213C12.6588 13.9597 12.629 13.9946 12.5976 14.0273C12.5889 14.0363 12.58 14.0443 12.5708 14.0528C12.5432 14.0791 12.5142 14.1032 12.4833 14.1252C12.4738 14.1321 12.4647 14.1393 12.4547 14.1459C12.4151 14.1719 12.3735 14.1947 12.3303 14.2134C12.321 14.2175 12.3112 14.22 12.3017 14.2238C12.2652 14.2379 12.2283 14.2495 12.1901 14.2584C12.1764 14.2617 12.1629 14.2647 12.149 14.2671C12.1 14.2761 12.0504 14.2823 12.0002 14.2823C11.99 14.2823 11.9796 14.2791 11.9695 14.2787C11.9213 14.2769 11.8736 14.2731 11.8278 14.2634C11.8135 14.2603 11.7994 14.254 11.7851 14.2501C11.7423 14.2385 11.7006 14.2256 11.6607 14.2078C11.6562 14.2055 11.6514 14.2051 11.6468 14.203L7.04558 12.0326C6.63102 11.8372 6.45342 11.3426 6.64886 10.928C6.8443 10.5137 7.33894 10.3358 7.75351 10.5313L11.1708 12.1428V4.97995C11.1708 4.52163 11.5424 4.15003 12.0007 4.15003C12.4591 4.15003 12.8307 4.52163 12.8307 4.97995V13.4521H12.8308C12.8308 13.457 12.8294 13.462 12.8294 13.4671Z" fill="#D94707"/>
</g>
<defs>
<clipPath id="clip0">
<rect width="24" height="24" fill="white"/>
</clipPath>
</defs>
</svg>
