<svg width="24" height="24" viewBox="0 0 24 24" fill="none" xmlns="http://www.w3.org/2000/svg">
<g clip-path="url(#clip0)">
<path d="M12.0002 19.0243C12.5179 19.0243 12.9376 18.6046 12.9376 18.0869C12.9376 17.5691 12.5179 17.1494 12.0002 17.1494C11.4825 17.1494 11.0627 17.5691 11.0627 18.0869C11.0627 18.6046 11.4825 19.0243 12.0002 19.0243Z" fill="#D94707"/>
<path d="M14.6153 5.45984H9.38479C9.09159 5.45984 8.85303 5.68728 8.85303 5.96632V15.8537C8.85303 16.133 9.09143 16.3602 9.38479 16.3602H14.6153C14.9085 16.3602 15.1471 16.1327 15.1471 15.8537V5.96632C15.1469 5.68704 14.9085 5.45984 14.6153 5.45984Z" fill="#D94707"/>
<path d="M12.0006 0C5.37346 0 0.000976562 5.37288 0.000976562 11.9998C0.000976562 18.6266 5.37346 24 12.0006 24C18.6277 24 24.0008 18.627 24.0008 11.9998C24.0008 5.37256 18.6277 0 12.0006 0ZM16.6692 17.9217C16.6692 18.8383 15.926 19.5816 15.0093 19.5816H8.99218C8.07554 19.5816 7.33226 18.8384 7.33226 17.9217V6.02584C7.33226 5.1092 8.07546 4.36592 8.99218 4.36592H15.0093C15.9259 4.36592 16.6692 5.10912 16.6692 6.02584V17.9217Z" fill="#D94707"/>
</g>
<defs>
<clipPath id="clip0">
<rect width="24" height="24" fill="white"/>
</clipPath>
</defs>
</svg>
