<svg width="24" height="24" viewBox="0 0 24 24" fill="none" xmlns="http://www.w3.org/2000/svg">
<path d="M21.8086 4.98604C21.6375 4.76853 21.3747 4.6414 21.0965 4.6414H3.89485L3.63916 1.81606C3.59734 1.35403 3.20693 1 2.73925 1H0.903518C0.404518 1 0 1.40122 0 1.89616C0 2.3911 0.404518 2.79232 0.903518 2.79232H1.91322L2.90356 13.7357C2.90378 13.7486 2.90313 13.7612 2.90386 13.7742C2.90589 13.8086 2.9104 13.8422 2.91617 13.8754L2.9524 14.2755C2.95308 14.283 2.95386 14.2906 2.95476 14.298C3.06456 15.2416 3.5507 16.0591 4.25368 16.6114C3.88943 17.0728 3.67147 17.653 3.67147 18.2831C3.67147 19.7812 4.9003 21 6.41068 21C7.9211 21 9.14993 19.7812 9.14993 18.2831C9.14993 17.9585 9.09206 17.6472 8.98639 17.3584H13.9315C13.8258 17.6472 13.7679 17.9585 13.7679 18.2831C13.7679 19.7812 14.9968 21 16.5072 21C18.0176 21 19.2464 19.7812 19.2464 18.2831C19.2464 16.7849 18.0176 15.5661 16.5072 15.5661H6.41679C5.73046 15.5661 5.13237 15.1554 4.87422 14.557L19.3136 13.7153C19.7078 13.6924 20.0414 13.4181 20.1372 13.0381L21.973 5.75486C22.0405 5.4872 21.9798 5.20359 21.8086 4.98604Z" fill="white"/>
</svg>
