<svg width="21" height="21" viewBox="0 0 21 21" fill="none" xmlns="http://www.w3.org/2000/svg">
<path d="M10.4999 10.2704C12.8347 10.2704 14.7277 7.9713 14.7277 5.13522C14.7277 2.29908 14.1062 0 10.4999 0C6.89357 0 6.27197 2.29908 6.27197 5.13522C6.27197 7.9713 8.16491 10.2704 10.4999 10.2704Z" fill="#D3D1D1"/>
<path d="M2.5145 18.1112C2.51378 17.9383 2.51306 18.0625 2.5145 18.1112V18.1112Z" fill="#D3D1D1"/>
<path d="M18.4851 18.2462C18.4874 18.1988 18.4859 17.9177 18.4851 18.2462V18.2462Z" fill="#D3D1D1"/>
<path d="M18.476 17.9039C18.3977 12.9633 17.7525 11.5555 12.8149 10.6644C12.8149 10.6644 12.1199 11.5501 10.4999 11.5501C8.87986 11.5501 8.1847 10.6644 8.1847 10.6644C3.301 11.5458 2.61652 12.9327 2.52652 17.7433C2.51914 18.1362 2.51572 18.1568 2.5144 18.1112C2.5147 18.1967 2.51506 18.3547 2.51506 18.6303C2.51506 18.6303 3.69058 21 10.4999 21C17.309 21 18.4847 18.6303 18.4847 18.6303C18.4847 18.4532 18.4848 18.3301 18.485 18.2463C18.4836 18.2745 18.481 18.2199 18.476 17.9039Z" fill="#D3D1D1"/>
</svg>
